<svg xmlns="http://www.w3.org/2000/svg" width="960" height="475" viewBox="0 0 960 475" role="img" aria-label="Separate context from the evolving generated state">
<rect width="100%" height="100%" fill="#101c30"/>
<defs><marker id="a" markerWidth="10" markerHeight="10" refX="8" refY="3" orient="auto"><path d="M0,0 L8,3 L0,6" fill="#c5d5ee"/></marker></defs>
<text x="30" y="42" fill="#fff" font-family="sans-serif" font-size="25">Separate context from the evolving generated state</text>
<text x="30" y="85" fill="#c5d5ee" font-family="sans-serif" font-size="18">Unconditional generation</text>
<rect x="30" y="100" width="275" height="68" rx="10" fill="#174c63" stroke="#8299b8"/>
<text x="44" y="127" fill="#fff" font-family="sans-serif" font-size="18">Noise</text>
<path d="M308,134 H335" stroke="#c5d5ee" stroke-width="2" marker-end="url(#a)"/>
<rect x="340" y="100" width="275" height="68" rx="10" fill="#493a75" stroke="#8299b8"/>
<text x="354" y="127" fill="#fff" font-family="sans-serif" font-size="18">Learned generator</text>
<path d="M618,134 H645" stroke="#c5d5ee" stroke-width="2" marker-end="url(#a)"/>
<rect x="650" y="100" width="275" height="68" rx="10" fill="#245546" stroke="#8299b8"/>
<text x="664" y="127" fill="#fff" font-family="sans-serif" font-size="18">New sample</text>
<text x="30" y="210" fill="#c5d5ee" font-family="sans-serif" font-size="18">Conditional generation or editing</text>
<rect x="30" y="225" width="275" height="68" rx="10" fill="#174c63" stroke="#8299b8"/>
<text x="44" y="252" fill="#fff" font-family="sans-serif" font-size="18">Noise + fixed context</text>
<path d="M308,259 H335" stroke="#c5d5ee" stroke-width="2" marker-end="url(#a)"/>
<rect x="340" y="225" width="275" height="68" rx="10" fill="#493a75" stroke="#8299b8"/>
<text x="354" y="252" fill="#fff" font-family="sans-serif" font-size="18">Conditioned updates</text>
<path d="M618,259 H645" stroke="#c5d5ee" stroke-width="2" marker-end="url(#a)"/>
<rect x="650" y="225" width="275" height="68" rx="10" fill="#245546" stroke="#8299b8"/>
<text x="664" y="252" fill="#fff" font-family="sans-serif" font-size="18">Image fitting context</text>
<text x="30" y="335" fill="#c5d5ee" font-family="sans-serif" font-size="18">Structured prediction</text>
<rect x="30" y="350" width="275" height="68" rx="10" fill="#174c63" stroke="#8299b8"/>
<text x="44" y="377" fill="#fff" font-family="sans-serif" font-size="18">Observed image</text>
<path d="M308,384 H335" stroke="#c5d5ee" stroke-width="2" marker-end="url(#a)"/>
<rect x="340" y="350" width="275" height="68" rx="10" fill="#493a75" stroke="#8299b8"/>
<text x="354" y="377" fill="#fff" font-family="sans-serif" font-size="18">Model + task guidance</text>
<path d="M618,384 H645" stroke="#c5d5ee" stroke-width="2" marker-end="url(#a)"/>
<rect x="650" y="350" width="275" height="68" rx="10" fill="#245546" stroke="#8299b8"/>
<text x="664" y="377" fill="#fff" font-family="sans-serif" font-size="18">Mask or explanation</text>
</svg>